<?xml version="1.0" encoding="utf-8"?>
<!-- Generator: Adobe Illustrator 27.4.0, SVG Export Plug-In . SVG Version: 6.00 Build 0)  -->
<svg version="1.1" id="Layer_1" xmlns="http://www.w3.org/2000/svg" xmlns:xlink="http://www.w3.org/1999/xlink" x="0px" y="0px"
	 viewBox="0 0 1334 1334" style="enable-background:new 0 0 1334 1334;" xml:space="preserve">
<polygon style="fill:#16D824;stroke:#231F20;stroke-width:6;stroke-miterlimit:10;" points="667,409.3 747.6,158 746.6,422 
	900.9,207.9 818.4,458.6 1031.4,302.6 875.4,515.6 1126.1,433.1 912,587.4 1176,586.4 924.7,667 1176,747.6 912,746.6 1126.1,900.9 
	875.4,818.4 1031.4,1031.4 818.4,875.4 900.9,1126.1 746.6,912 747.6,1176 667,924.7 586.4,1176 587.4,912 433.1,1126.1 
	515.6,875.4 302.6,1031.4 458.6,818.4 207.9,900.9 422,746.6 158,747.6 409.3,667 158,586.4 422,587.4 207.9,433.1 458.6,515.6 
	302.6,302.6 515.6,458.6 433.1,207.9 587.4,422 586.4,158 "/>
</svg>
