<?xml version="1.0" encoding="utf-8"?>
<!-- Generator: Adobe Illustrator 27.4.0, SVG Export Plug-In . SVG Version: 6.00 Build 0)  -->
<svg version="1.1" id="Layer_1" xmlns="http://www.w3.org/2000/svg" xmlns:xlink="http://www.w3.org/1999/xlink" x="0px" y="0px"
	 viewBox="0 0 1334 1334" style="enable-background:new 0 0 1334 1334;" xml:space="preserve">
<linearGradient id="SVGID_1_" gradientUnits="userSpaceOnUse" x1="832.0403" y1="1300.8544" x2="497.4504" y2="16.0548">
	<stop  offset="0" style="stop-color:#72529A"/>
	<stop  offset="0.2658" style="stop-color:#74559B"/>
	<stop  offset="0.5677" style="stop-color:#7C5E9F"/>
	<stop  offset="0.8862" style="stop-color:#896DA6"/>
	<stop  offset="1" style="stop-color:#8F74A9"/>
</linearGradient>
<polygon style="fill:url(#SVGID_1_);" points="667.1,13.2 718.3,344.4 869.3,45.2 815.6,376 1051.7,138.1 898.4,436.2 1196.4,282.9 
	958.6,519 1289.4,465.3 990.2,616.3 1321.4,667.5 990.2,718.7 1289.4,869.7 958.6,816 1196.4,1052.1 898.4,898.8 1051.7,1196.8 
	815.6,959 869.3,1289.8 718.3,990.6 667.1,1321.8 615.9,990.6 464.9,1289.8 518.6,959 282.5,1196.8 435.8,898.8 137.8,1052.1 
	375.6,816 44.8,869.7 344,718.7 12.8,667.5 344,616.3 44.8,465.3 375.6,519 137.8,282.9 435.8,436.2 282.5,138.1 518.6,376 
	464.9,45.2 615.9,344.4 "/>
<polygon style="fill:#FFFFFF;" points="667.1,278.9 697.5,475.6 787.2,297.9 755.3,494.4 895.5,353.1 804.5,530.1 981.5,439.1 
	840.2,579.3 1036.7,547.4 859,637.1 1055.7,667.5 859,697.9 1036.7,787.6 840.2,755.7 981.5,895.9 804.5,804.9 895.5,981.9 
	755.3,840.6 787.2,1037.1 697.5,859.4 667.1,1056.1 636.7,859.4 547,1037.1 578.9,840.6 438.7,981.9 529.7,804.9 352.7,895.9 
	494,755.7 297.5,787.6 475.2,697.9 278.5,667.5 475.2,637.1 297.5,547.4 494,579.3 352.7,439.1 529.7,530.1 438.7,353.1 
	578.9,494.4 547,297.9 636.7,475.6 "/>
<linearGradient id="SVGID_00000124861982888662317670000010098969463900693136_" gradientUnits="userSpaceOnUse" x1="716.6596" y1="857.8015" x2="616.1208" y2="471.7399">
	<stop  offset="0" style="stop-color:#72529A"/>
	<stop  offset="0.2658" style="stop-color:#74559B"/>
	<stop  offset="0.5677" style="stop-color:#7C5E9F"/>
	<stop  offset="0.8862" style="stop-color:#896DA6"/>
	<stop  offset="1" style="stop-color:#8F74A9"/>
</linearGradient>
<polygon style="fill:url(#SVGID_00000124861982888662317670000010098969463900693136_);" points="667.1,470.9 682.5,570.4 
	727.9,480.5 711.7,579.9 782.7,508.4 736.6,598 826.2,551.9 754.7,622.9 854.1,606.7 764.2,652.1 863.7,667.5 764.2,682.9 
	854.1,728.2 754.7,712.1 826.2,783 736.6,737 782.7,826.5 711.7,755.1 727.9,854.5 682.5,764.6 667.1,864.1 651.7,764.6 
	606.3,854.5 622.5,755.1 551.5,826.5 597.6,737 508,783 579.5,712.1 480.1,728.2 570,682.9 470.5,667.5 570,652.1 480.1,606.7 
	579.5,622.9 508,551.9 597.6,598 551.5,508.4 622.5,579.9 606.3,480.5 651.7,570.4 "/>
</svg>
