<?xml version="1.0" encoding="utf-8"?>
<!-- Generator: Adobe Illustrator 27.4.0, SVG Export Plug-In . SVG Version: 6.00 Build 0)  -->
<svg version="1.1" id="Layer_1" xmlns="http://www.w3.org/2000/svg" xmlns:xlink="http://www.w3.org/1999/xlink" x="0px" y="0px"
	 viewBox="0 0 1334 1334" style="enable-background:new 0 0 1334 1334;" xml:space="preserve">
<linearGradient id="SVGID_1_" gradientUnits="userSpaceOnUse" x1="831.9435" y1="1300.3705" x2="497.3537" y2="15.5709">
	<stop  offset="0" style="stop-color:#B2C513"/>
	<stop  offset="0.2301" style="stop-color:#B2C516"/>
	<stop  offset="0.3925" style="stop-color:#B2C61F"/>
	<stop  offset="0.534" style="stop-color:#B3C72F"/>
	<stop  offset="0.6636" style="stop-color:#B3C945"/>
	<stop  offset="0.785" style="stop-color:#B4CB61"/>
	<stop  offset="0.8988" style="stop-color:#B5CD84"/>
	<stop  offset="1" style="stop-color:#B6D0A9"/>
</linearGradient>
<polygon style="fill:url(#SVGID_1_);" points="667,12.7 718.2,343.9 869.2,44.7 815.5,375.5 1051.6,137.7 898.3,435.7 1196.3,282.4 
	958.5,518.5 1289.3,464.8 990.1,615.8 1321.3,667 990.1,718.2 1289.3,869.2 958.5,815.5 1196.3,1051.6 898.3,898.3 1051.6,1196.3 
	815.5,958.5 869.2,1289.3 718.2,990.1 667,1321.3 615.8,990.1 464.8,1289.3 518.5,958.5 282.4,1196.3 435.7,898.3 137.7,1051.6 
	375.5,815.5 44.7,869.2 343.9,718.2 12.7,667 343.9,615.8 44.7,464.8 375.5,518.5 137.7,282.4 435.7,435.7 282.4,137.7 518.5,375.5 
	464.8,44.7 615.8,343.9 "/>
<polygon style="fill:#FFFFFF;" points="667,278.4 697.4,475.1 787.1,297.4 755.2,493.9 895.4,352.6 804.4,529.6 981.4,438.6 
	840.1,578.8 1036.6,546.9 858.9,636.6 1055.6,667 858.9,697.4 1036.6,787.1 840.1,755.2 981.4,895.4 804.4,804.4 895.4,981.4 
	755.2,840.1 787.1,1036.6 697.4,858.9 667,1055.6 636.6,858.9 546.9,1036.6 578.8,840.1 438.6,981.4 529.6,804.4 352.6,895.4 
	493.9,755.2 297.4,787.1 475.1,697.4 278.4,667 475.1,636.6 297.4,546.9 493.9,578.8 352.6,438.6 529.6,529.6 438.6,352.6 
	578.8,493.9 546.9,297.4 636.6,475.1 "/>
<linearGradient id="SVGID_00000043435039072524554350000015751943675956746648_" gradientUnits="userSpaceOnUse" x1="716.5629" y1="857.3176" x2="616.024" y2="471.2561">
	<stop  offset="0" style="stop-color:#B2C513"/>
	<stop  offset="0.2301" style="stop-color:#B2C516"/>
	<stop  offset="0.3925" style="stop-color:#B2C61F"/>
	<stop  offset="0.534" style="stop-color:#B3C72F"/>
	<stop  offset="0.6636" style="stop-color:#B3C945"/>
	<stop  offset="0.785" style="stop-color:#B4CB61"/>
	<stop  offset="0.8988" style="stop-color:#B5CD84"/>
	<stop  offset="1" style="stop-color:#B6D0A9"/>
</linearGradient>
<polygon style="fill:url(#SVGID_00000043435039072524554350000015751943675956746648_);" points="667,470.4 682.4,569.9 727.8,480 
	711.6,579.4 782.6,507.9 736.5,597.5 826.1,551.4 754.6,622.4 854,606.2 764.1,651.6 863.6,667 764.1,682.4 854,727.8 754.6,711.6 
	826.1,782.6 736.5,736.5 782.6,826.1 711.6,754.6 727.8,854 682.4,764.1 667,863.6 651.6,764.1 606.2,854 622.4,754.6 551.4,826.1 
	597.5,736.5 507.9,782.6 579.4,711.6 480,727.8 569.9,682.4 470.4,667 569.9,651.6 480,606.2 579.4,622.4 507.9,551.4 597.5,597.5 
	551.4,507.9 622.4,579.4 606.2,480 651.6,569.9 "/>
</svg>
