<?xml version="1.0" encoding="utf-8"?>
<!-- Generator: Adobe Illustrator 27.4.1, SVG Export Plug-In . SVG Version: 6.00 Build 0)  -->
<svg version="1.1" id="Layer_1" xmlns="http://www.w3.org/2000/svg" xmlns:xlink="http://www.w3.org/1999/xlink" x="0px" y="0px"
	 viewBox="0 0 63.8 63.8" style="enable-background:new 0 0 63.8 63.8;" xml:space="preserve">
<polygon style="fill:#6E5295;" points="31.6,0.5 34.1,16.3 41.3,2 38.7,17.9 50,6.5 42.7,20.7 57,13.4 45.6,24.7 61.4,22.1 
	47.1,29.4 63,31.8 47.1,34.3 61.4,41.5 45.6,38.9 57,50.2 42.7,42.9 50,57.1 38.7,45.8 41.3,61.6 34.1,47.3 31.6,63.1 29.2,47.3 
	22,61.6 24.5,45.8 13.2,57.1 20.6,42.9 6.3,50.2 17.7,38.9 1.9,41.5 16.2,34.3 0.3,31.8 16.2,29.4 1.9,22.1 17.7,24.7 6.3,13.4 
	20.6,20.7 13.2,6.5 24.5,17.9 22,2 29.2,16.3 "/>
<polygon style="fill:#FFFFFF;" points="31.6,13.2 33.1,22.6 37.4,14.1 35.9,23.5 42.6,16.8 38.2,25.2 46.7,20.9 39.9,27.6 
	49.3,26.1 40.8,30.4 50.2,31.8 40.8,33.3 49.3,37.6 39.9,36 46.7,42.7 38.2,38.4 42.6,46.9 35.9,40.1 37.4,49.5 33.1,41 31.6,50.4 
	30.2,41 25.9,49.5 27.4,40.1 20.7,46.9 25.1,38.4 16.6,42.7 23.4,36 13.9,37.6 22.5,33.3 13,31.8 22.5,30.4 13.9,26.1 23.4,27.6 
	16.6,20.9 25.1,25.2 20.7,16.8 27.4,23.5 25.9,14.1 30.2,22.6 "/>
<polygon style="fill:#6E5295;" points="31.6,22.4 32.4,27.2 34.5,22.9 33.8,27.6 37.2,24.2 35,28.5 39.3,26.3 35.8,29.7 40.6,28.9 
	36.3,31.1 41,31.8 36.3,32.5 40.6,34.7 35.8,33.9 39.3,37.3 35,35.1 37.2,39.4 33.8,36 34.5,40.8 32.4,36.5 31.6,41.2 30.9,36.5 
	28.7,40.8 29.5,36 26.1,39.4 28.3,35.1 24,37.3 27.4,33.9 22.7,34.7 27,32.5 22.2,31.8 27,31.1 22.7,28.9 27.4,29.7 24,26.3 
	28.3,28.5 26.1,24.2 29.5,27.6 28.7,22.9 30.9,27.2 "/>
</svg>
