<?xml version="1.0" encoding="utf-8"?>
<!-- Generator: Adobe Illustrator 27.4.0, SVG Export Plug-In . SVG Version: 6.00 Build 0)  -->
<svg version="1.1" id="Layer_1" xmlns="http://www.w3.org/2000/svg" xmlns:xlink="http://www.w3.org/1999/xlink" x="0px" y="0px"
	 viewBox="0 0 63.8 63.8" style="enable-background:new 0 0 63.8 63.8;" xml:space="preserve">
<polygon style="fill:#54B848;stroke:#231F20;stroke-width:1.6;stroke-miterlimit:10;" points="31.7,19.7 35.6,7.5 35.6,20.3 
	43.1,9.9 39,22.1 49.4,14.5 41.8,24.9 54,20.8 43.6,28.4 56.5,28.3 44.2,32.2 56.5,36.2 43.6,36.1 54,43.6 41.8,39.6 49.4,50 
	39,42.4 43.1,54.6 35.6,44.2 35.6,57 31.7,44.8 27.8,57 27.8,44.2 20.3,54.6 24.3,42.4 13.9,50 21.5,39.6 9.3,43.6 19.8,36.1 
	6.9,36.2 19.1,32.2 6.9,28.3 19.8,28.4 9.3,20.8 21.5,24.9 13.9,14.5 24.3,22.1 20.3,9.9 27.8,20.3 27.8,7.5 "/>
</svg>
