<?xml version="1.0" encoding="utf-8"?>
<!-- Generator: Adobe Illustrator 27.4.0, SVG Export Plug-In . SVG Version: 6.00 Build 0)  -->
<svg version="1.1" id="Layer_1" xmlns="http://www.w3.org/2000/svg" xmlns:xlink="http://www.w3.org/1999/xlink" x="0px" y="0px"
	 viewBox="0 0 63.8 63.8" style="enable-background:new 0 0 63.8 63.8;" xml:space="preserve">
<polygon style="fill:#AA509F;stroke:#231F20;stroke-width:1.6;stroke-miterlimit:10;" points="31.7,19.5 35.6,7.2 35.6,20.1 
	43.1,9.7 39.1,21.9 49.5,14.3 41.9,24.6 54.1,20.6 43.6,28.1 56.5,28.1 44.3,32 56.5,35.9 43.6,35.9 54.1,43.4 41.9,39.4 49.5,49.7 
	39.1,42.2 43.1,54.4 35.6,43.9 35.6,56.8 31.7,44.6 27.8,56.8 27.8,43.9 20.3,54.4 24.4,42.2 14,49.7 21.6,39.4 9.4,43.4 19.8,35.9 
	6.9,35.9 19.2,32 6.9,28.1 19.8,28.1 9.4,20.6 21.6,24.6 14,14.3 24.4,21.9 20.3,9.7 27.8,20.1 27.8,7.2 "/>
</svg>
