<?xml version="1.0" encoding="utf-8"?>
<!-- Generator: Adobe Illustrator 27.4.0, SVG Export Plug-In . SVG Version: 6.00 Build 0)  -->
<svg version="1.1" id="Layer_1" xmlns="http://www.w3.org/2000/svg" xmlns:xlink="http://www.w3.org/1999/xlink" x="0px" y="0px"
	 viewBox="0 0 63.8 63.8" style="enable-background:new 0 0 63.8 63.8;" xml:space="preserve">
<g>
	<path style="fill:#D6C933;" d="M42,3.6C40.5,4,39.5,5,39.5,6.8c0,1,0.4,2.4,0.8,3.4l14.9,42.9c1.1,3.2,1.8,5.5,5.3,6.4v0.8H40.7
		v-0.8c3.1-0.7,4.3-3.1,4.3-6.1c0-6.6-7.2-18.9-23.8-19.2l-5.2,14.4c-0.7,2-1.4,4.1-1.4,6.2c0,2.8,2.3,4.5,4.8,4.7v0.8H1.5v-0.8
		c2.1-0.4,3.2-1,4.5-2.8c1.6-2.3,3-5.6,3.9-8.1l14-37.1c0.6-1.7,1.3-3.3,1.3-5.1c0-1.6-1.2-2.5-2.7-2.8V2.8H42V3.6z M22.3,30.3
		c6.5,0,13.4,2.5,17.6,6.5L30.2,9.4L22.3,30.3z"/>
</g>
</svg>
